<?xml version="1.0" encoding="iso-8859-1"?>
<!-- Generator: Adobe Illustrator 19.0.0, SVG Export Plug-In . SVG Version: 6.00 Build 0)  -->
<svg version="1.1" id="Layer_1" xmlns="http://www.w3.org/2000/svg" xmlns:xlink="http://www.w3.org/1999/xlink" x="0px" y="0px"
	 viewBox="0 0 496 496" style="enable-background:new 0 0 496 496;" xml:space="preserve">
<circle style="fill:#EFF4F4;" cx="248" cy="248" r="192.8"/>
<path style="fill:#E4EDED;" d="M248,55.2c106.4,0,192.8,86.4,192.8,192.8S354.4,440.8,248,440.8"/>
<path style="fill:#DFEFEF;" d="M117.6,305.6c-5.6-12.8-9.6-27.2-11.2-42.4H0c2.4,34.4,11.2,66.4,25.6,95.2L117.6,305.6z"/>
<path style="fill:#D4E8E7;" d="M56,263.2c1.6,24,8,47.2,18.4,68l44-25.6c-5.6-12.8-9.6-27.2-11.2-42.4H56z"/>
<path style="fill:#DFEFEF;" d="M232.8,496V389.6c-15.2-1.6-28.8-5.6-42.4-11.2l-52.8,92C166.4,484.8,198.4,493.6,232.8,496z"/>
<path style="fill:#D4E8E7;" d="M164.8,422.4c20.8,9.6,43.2,16,68,18.4v-50.4c-15.2-1.6-28.8-5.6-42.4-11.2L164.8,422.4z"/>
<path style="fill:#1BCEB8;" d="M263.2,0v106.4c15.2,1.6,28.8,5.6,42.4,11.2l52.8-92C329.6,11.2,297.6,2.4,263.2,0z"/>
<path style="fill:#0DBFBA;" d="M263.2,56v50.4c15.2,1.6,28.8,5.6,42.4,11.2l25.6-44C310.4,64,287.2,57.6,263.2,56z"/>
<path style="fill:#DFEFEF;" d="M0,232.8h106.4c1.6-15.2,5.6-28.8,11.2-42.4l-92-52.8C11.2,166.4,2.4,198.4,0,232.8z"/>
<path style="fill:#D4E8E7;" d="M56,232.8h50.4c1.6-15.2,5.6-28.8,11.2-42.4l-44-25.6C64,185.6,57.6,208.8,56,232.8z"/>
<path style="fill:#1BCEB8;" d="M305.6,378.4c-12.8,5.6-27.2,9.6-42.4,11.2V496c34.4-2.4,66.4-11.2,95.2-25.6L305.6,378.4z"/>
<path style="fill:#0DBFBA;" d="M331.2,422.4l-25.6-44c-12.8,5.6-27.2,9.6-42.4,11.2V440C287.2,438.4,310.4,432,331.2,422.4z"/>
<path style="fill:#DFEFEF;" d="M190.4,117.6c12.8-5.6,27.2-9.6,42.4-11.2V0c-34.4,2.4-66.4,11.2-95.2,25.6L190.4,117.6z"/>
<path style="fill:#D4E8E7;" d="M164.8,73.6l25.6,44c12.8-5.6,27.2-9.6,42.4-11.2V56C208.8,57.6,185.6,64,164.8,73.6z"/>
<path style="fill:#1BCEB8;" d="M332,132.8c12,8.8,22.4,19.2,31.2,31.2l92-52.8c-18.4-28-42.4-51.2-69.6-69.6L332,132.8z"/>
<path style="fill:#0DBFBA;" d="M357.6,88.8l-25.6,44c12,8.8,22.4,19.2,31.2,31.2l44-25.6C393.6,119.2,376.8,102.4,357.6,88.8z"/>
<path style="fill:#1BCEB8;" d="M496,263.2H389.6c-1.6,15.2-5.6,28.8-11.2,42.4l92,52.8C484.8,329.6,493.6,297.6,496,263.2z"/>
<path style="fill:#0DBFBA;" d="M422.4,331.2c9.6-20.8,16-43.2,18.4-68h-50.4c-1.6,15.2-5.6,28.8-11.2,42.4L422.4,331.2z"/>
<path style="fill:#1BCEB8;" d="M363.2,332c-8.8,12-19.2,22.4-31.2,31.2l52.8,92c28-18.4,51.2-42.4,69.6-69.6L363.2,332z"/>
<path style="fill:#0DBFBA;" d="M363.2,332c-8.8,12-19.2,22.4-31.2,31.2l25.6,44c19.2-13.6,36-30.4,49.6-49.6L363.2,332z"/>
<path style="fill:#DFEFEF;" d="M164,363.2c-12-8.8-22.4-19.2-31.2-31.2l-92,53.6c18.4,28,42.4,51.2,69.6,69.6L164,363.2z"/>
<path style="fill:#D4E8E7;" d="M132.8,332l-44,25.6c13.6,19.2,30.4,36,49.6,49.6l25.6-44C152,354.4,141.6,344,132.8,332z"/>
<path style="fill:#DFEFEF;" d="M132.8,164c8.8-12,19.2-22.4,31.2-31.2l-53.6-92c-28,18.4-51.2,42.4-69.6,69.6L132.8,164z"/>
<path style="fill:#D4E8E7;" d="M88.8,138.4l44,25.6c8.8-12,19.2-22.4,31.2-31.2l-25.6-44C119.2,102.4,102.4,119.2,88.8,138.4z"/>
<path style="fill:#1BCEB8;" d="M378.4,190.4c5.6,13.6,9.6,27.2,11.2,42.4H496c-2.4-34.4-11.2-66.4-25.6-95.2L378.4,190.4z"/>
<path style="fill:#0DBFBA;" d="M389.6,232.8H440c-1.6-24-8-47.2-18.4-68l-44,25.6C384,203.2,388,217.6,389.6,232.8z"/>
<path style="fill:#1BCEB8;" d="M223.2,234.4c-7.2-4-16-6.4-25.6-6.4c-0.8,0-1.6,0-2.4,0l2.4-16.8h36.8c3.2,0,5.6-2.4,5.6-4.8v-12
	c0-3.2-2.4-5.6-5.6-5.6h-52c-2.4,0-4.8,1.6-4.8,4.8l-7.2,52c0,1.6,0.8,3.2,1.6,4s3.2,1.6,4.8,1.6c4-0.8,8-0.8,13.6-0.8
	c16.8,0,25.6,6.4,25.6,18.4c0,12.8-10.4,18.4-20.8,18.4c-8.8,0-16-3.2-20.8-5.6c-1.6-0.8-3.2-0.8-4.8-0.8c-1.6,0.8-2.4,1.6-3.2,3.2
	l-4,11.2c-0.8,2.4,0,4.8,2.4,6.4c5.6,4,16,7.2,29.6,7.2c25.6,0,45.6-18.4,45.6-42.4C241.6,252.8,235.2,240.8,223.2,234.4z"/>
<path style="fill:#0DBFBA;" d="M291.2,187.2c-25.6,0-42.4,24-42.4,61.6s16,60.8,40.8,60.8c27.2,0,42.4-22.4,42.4-62.4
	C332,209.6,316.8,187.2,291.2,187.2z M290.4,287.2c-10.4,0-16.8-15.2-16.8-39.2s6.4-40,16.8-40c14.4,0,16.8,24,16.8,39.2
	C307.2,259.2,305.6,287.2,290.4,287.2z"/>
<g>
</g>
<g>
</g>
<g>
</g>
<g>
</g>
<g>
</g>
<g>
</g>
<g>
</g>
<g>
</g>
<g>
</g>
<g>
</g>
<g>
</g>
<g>
</g>
<g>
</g>
<g>
</g>
<g>
</g>
</svg>
